<mxfile host="65bd71144e">
    <diagram id="fKEEVc4aK_-P88laXLWk" name="Page-1">
        <mxGraphModel dx="1036" dy="549" grid="1" gridSize="10" guides="1" tooltips="1" connect="1" arrows="1" fold="1" page="1" pageScale="1" pageWidth="850" pageHeight="1100" math="0" shadow="0">
            <root>
                <mxCell id="0"/>
                <mxCell id="1" parent="0"/>
                <mxCell id="2" value="Usuario" style="shape=umlActor;verticalLabelPosition=bottom;verticalAlign=top;html=1;fillColor=#000000;" vertex="1" parent="1">
                    <mxGeometry x="90" y="330" width="30" height="60" as="geometry"/>
                </mxCell>
                <mxCell id="3" value="App" style="shape=umlActor;verticalLabelPosition=bottom;verticalAlign=top;html=1;fillColor=#D00000;" vertex="1" parent="1">
                    <mxGeometry x="800" y="315" width="30" height="60" as="geometry"/>
                </mxCell>
                <mxCell id="4" value="PoliTinder" style="shape=umlFrame;tabPosition=left;html=1;boundedLbl=1;labelInHeader=1;width=70;height=30;fillColor=#CCCCCC;" vertex="1" parent="1">
                    <mxGeometry x="135" y="80" width="620" height="510" as="geometry"/>
                </mxCell>
                <mxCell id="6" value="Gestionar Tipo Relación" style="ellipse;fillColor=#fad7ac;strokeColor=#b46504;" vertex="1" parent="1">
                    <mxGeometry x="350" y="340" width="190" height="80" as="geometry"/>
                </mxCell>
                <mxCell id="7" value="Gestionar Regalos" style="ellipse;fillColor=#bac8d3;strokeColor=#23445d;" vertex="1" parent="1">
                    <mxGeometry x="340" y="190" width="190" height="70" as="geometry"/>
                </mxCell>
                <mxCell id="18" value="" style="endArrow=open;startArrow=none;endFill=0;startFill=0;endSize=8;html=1;verticalAlign=bottom;labelBackgroundColor=none;strokeWidth=1;entryX=0;entryY=0.5;entryDx=0;entryDy=0;exitX=1;exitY=0.3333333333333333;exitDx=0;exitDy=0;exitPerimeter=0;" edge="1" parent="1" source="2" target="7">
                    <mxGeometry width="160" relative="1" as="geometry">
                        <mxPoint x="130.98000000000002" y="350" as="sourcePoint"/>
                        <mxPoint x="320" y="254.02999999999997" as="targetPoint"/>
                    </mxGeometry>
                </mxCell>
                <mxCell id="19" value="" style="endArrow=open;startArrow=none;endFill=0;startFill=0;endSize=8;html=1;verticalAlign=bottom;labelBackgroundColor=none;strokeWidth=1;entryX=0;entryY=0.5;entryDx=0;entryDy=0;exitX=1;exitY=0.3333333333333333;exitDx=0;exitDy=0;exitPerimeter=0;" edge="1" parent="1" source="2" target="6">
                    <mxGeometry width="160" relative="1" as="geometry">
                        <mxPoint x="130.98000000000002" y="390" as="sourcePoint"/>
                        <mxPoint x="330" y="325" as="targetPoint"/>
                    </mxGeometry>
                </mxCell>
                <mxCell id="31" value="&amp;lt;&amp;lt;extend&amp;gt;&amp;gt;" style="html=1;verticalAlign=bottom;labelBackgroundColor=none;endArrow=open;endFill=0;dashed=1;entryX=0.5;entryY=1;entryDx=0;entryDy=0;" edge="1" parent="1" source="36" target="6">
                    <mxGeometry x="-0.1068" y="-35" width="160" relative="1" as="geometry">
                        <mxPoint x="434.5" y="530" as="sourcePoint"/>
                        <mxPoint x="434.9967773453859" y="440.0001535549063" as="targetPoint"/>
                        <mxPoint as="offset"/>
                    </mxGeometry>
                </mxCell>
                <mxCell id="32" value="&amp;lt;&amp;lt;extend&amp;gt;&amp;gt;" style="html=1;verticalAlign=bottom;labelBackgroundColor=none;endArrow=open;endFill=0;dashed=1;entryX=1;entryY=1;entryDx=0;entryDy=0;exitX=0.5;exitY=0;exitDx=0;exitDy=0;" edge="1" parent="1" source="37" target="6">
                    <mxGeometry width="160" relative="1" as="geometry">
                        <mxPoint x="460" y="535.86" as="sourcePoint"/>
                        <mxPoint x="555.4967773453859" y="470.0001535549063" as="targetPoint"/>
                    </mxGeometry>
                </mxCell>
                <mxCell id="34" value="&amp;lt;&amp;lt;extend&amp;gt;&amp;gt;" style="html=1;verticalAlign=bottom;labelBackgroundColor=none;endArrow=open;endFill=0;dashed=1;entryX=0;entryY=1;entryDx=0;entryDy=0;" edge="1" parent="1" source="35" target="6">
                    <mxGeometry width="160" relative="1" as="geometry">
                        <mxPoint x="340.05999999999995" y="550.0799999999999" as="sourcePoint"/>
                        <mxPoint x="250.00000000000003" y="439.99999999999994" as="targetPoint"/>
                    </mxGeometry>
                </mxCell>
                <mxCell id="35" value="Agregar Tipo Relación " style="ellipse;fillColor=#fad9d5;strokeColor=#ae4132;" vertex="1" parent="1">
                    <mxGeometry x="220" y="490" width="160" height="60" as="geometry"/>
                </mxCell>
                <mxCell id="36" value="Eliminar Tipo Relación" style="ellipse;fillColor=#fad9d5;strokeColor=#ae4132;" vertex="1" parent="1">
                    <mxGeometry x="365" y="460" width="160" height="60" as="geometry"/>
                </mxCell>
                <mxCell id="37" value="Modificar Tipo Relación" style="ellipse;fillColor=#fad9d5;strokeColor=#ae4132;" vertex="1" parent="1">
                    <mxGeometry x="510" y="490" width="150" height="60" as="geometry"/>
                </mxCell>
                <mxCell id="38" value="Salir de la App" style="ellipse;fillColor=#b0e3e6;strokeColor=#0e8088;" vertex="1" parent="1">
                    <mxGeometry x="350" y="90" width="190" height="80" as="geometry"/>
                </mxCell>
                <mxCell id="39" value="" style="endArrow=open;startArrow=none;endFill=0;startFill=0;endSize=8;html=1;verticalAlign=bottom;labelBackgroundColor=none;strokeWidth=1;entryX=0;entryY=0.5;entryDx=0;entryDy=0;exitX=1;exitY=0.3333333333333333;exitDx=0;exitDy=0;exitPerimeter=0;" edge="1" parent="1" source="2" target="38">
                    <mxGeometry width="160" relative="1" as="geometry">
                        <mxPoint x="130" y="317.5" as="sourcePoint"/>
                        <mxPoint x="329.02" y="252.5" as="targetPoint"/>
                    </mxGeometry>
                </mxCell>
                <mxCell id="41" value="Enviar Regalo" style="ellipse;fillColor=#d0cee2;strokeColor=#56517e;" vertex="1" parent="1">
                    <mxGeometry x="410" y="280" width="120" height="50" as="geometry"/>
                </mxCell>
                <mxCell id="42" value="Recibir Regalo" style="ellipse;fillColor=#d0cee2;strokeColor=#56517e;" vertex="1" parent="1">
                    <mxGeometry x="230" y="280" width="120" height="50" as="geometry"/>
                </mxCell>
                <mxCell id="43" value="&amp;lt;&amp;lt;extend&amp;gt;&amp;gt;" style="html=1;verticalAlign=bottom;labelBackgroundColor=none;endArrow=open;endFill=0;dashed=1;entryX=0;entryY=1;entryDx=0;entryDy=0;" edge="1" parent="1" source="42" target="7">
                    <mxGeometry x="-0.1068" y="-35" width="160" relative="1" as="geometry">
                        <mxPoint x="380.00460689183194" y="270.0273395050317" as="sourcePoint"/>
                        <mxPoint x="386.58677734538594" y="220.00015355490632" as="targetPoint"/>
                        <mxPoint as="offset"/>
                    </mxGeometry>
                </mxCell>
                <mxCell id="44" value="&amp;lt;&amp;lt;extend&amp;gt;&amp;gt;" style="html=1;verticalAlign=bottom;labelBackgroundColor=none;endArrow=open;endFill=0;dashed=1;exitX=0.592;exitY=0;exitDx=0;exitDy=0;exitPerimeter=0;entryX=0.5;entryY=1;entryDx=0;entryDy=0;" edge="1" parent="1" source="41" target="7">
                    <mxGeometry x="-1" y="-21" width="160" relative="1" as="geometry">
                        <mxPoint x="439.9974267651297" y="290.62643808106714" as="sourcePoint"/>
                        <mxPoint x="473.23677734538603" y="230.00015355490632" as="targetPoint"/>
                        <mxPoint x="11" y="9" as="offset"/>
                    </mxGeometry>
                </mxCell>
                <mxCell id="46" value="Pagar con TC" style="ellipse;fillColor=#EDC8FA;strokeColor=#56517e;" vertex="1" parent="1">
                    <mxGeometry x="580" y="290" width="120" height="50" as="geometry"/>
                </mxCell>
                <mxCell id="52" value="" style="endArrow=open;startArrow=none;endFill=0;startFill=0;endSize=8;html=1;verticalAlign=bottom;labelBackgroundColor=none;strokeWidth=1;exitX=0;exitY=0.3333333333333333;exitDx=0;exitDy=0;exitPerimeter=0;entryX=1;entryY=0.5;entryDx=0;entryDy=0;" edge="1" parent="1" source="3" target="38">
                    <mxGeometry width="160" relative="1" as="geometry">
                        <mxPoint x="710" y="364.46" as="sourcePoint"/>
                        <mxPoint x="943" y="140" as="targetPoint"/>
                    </mxGeometry>
                </mxCell>
                <mxCell id="53" value="" style="endArrow=open;startArrow=none;endFill=0;startFill=0;endSize=8;html=1;verticalAlign=bottom;labelBackgroundColor=none;strokeWidth=1;exitX=0;exitY=0.3333333333333333;exitDx=0;exitDy=0;exitPerimeter=0;entryX=1;entryY=0.5;entryDx=0;entryDy=0;" edge="1" parent="1" source="3" target="7">
                    <mxGeometry width="160" relative="1" as="geometry">
                        <mxPoint x="890" y="435" as="sourcePoint"/>
                        <mxPoint x="540" y="200" as="targetPoint"/>
                    </mxGeometry>
                </mxCell>
                <mxCell id="54" value="" style="endArrow=open;startArrow=none;endFill=0;startFill=0;endSize=8;html=1;verticalAlign=bottom;labelBackgroundColor=none;strokeWidth=1;exitX=0;exitY=0.3333333333333333;exitDx=0;exitDy=0;exitPerimeter=0;entryX=1;entryY=0.5;entryDx=0;entryDy=0;" edge="1" parent="1" source="3" target="6">
                    <mxGeometry width="160" relative="1" as="geometry">
                        <mxPoint x="890" y="465" as="sourcePoint"/>
                        <mxPoint x="540" y="330" as="targetPoint"/>
                    </mxGeometry>
                </mxCell>
                <mxCell id="55" value="" style="endArrow=open;startArrow=none;endFill=0;startFill=0;endSize=8;html=1;verticalAlign=bottom;labelBackgroundColor=none;strokeWidth=1;exitX=1;exitY=0.5;exitDx=0;exitDy=0;entryX=0;entryY=0.5;entryDx=0;entryDy=0;" edge="1" parent="1" source="41" target="46">
                    <mxGeometry width="160" relative="1" as="geometry">
                        <mxPoint x="420" y="315" as="sourcePoint"/>
                        <mxPoint x="580" y="315" as="targetPoint"/>
                    </mxGeometry>
                </mxCell>
            </root>
        </mxGraphModel>
    </diagram>
</mxfile>